<?xml version="1.0" encoding="UTF-8"?><svg id="Layer_1" xmlns="http://www.w3.org/2000/svg" viewBox="0 0 1460.5 901.35"><defs><style>.cls-1{fill:#d20cf4;}</style></defs><path class="cls-1" d="M594.41,624.32c-.59,2.7-1.86,5.04-4.48,6.5-1.82,1.01-1.42,2.47,0,3.61,1.71,1.37,2.22,3.26,2.59,5.25,.2,1.09,1.11,2.42-.15,3.19-1.73,1.06-1.66-1.65-3.42-1.82,.57,9.09-2.72,17.91-.88,27.06,.36,1.8,2.16,5.36-2.77,4.99-1.62-.12-1.59,1.93-1.39,3.22,.95,5.98,.55,12.4,5.6,17.08,.9,.83,1.05,2.38,.11,3.2-1.86,1.63-1.63-2.34-4.04-1.11,.92,8.84-3.82,17.66,.06,27.34,2.28,5.68,1.22,12.52-2.09,18.34,1.13,1.53,4.28-.91,4.2,2.14-.08,2.95,.19,6.94-3.18,7.78-6.25,1.56-7.38,6.02-7.72,11.15-.69,10.5-8.27,16.42-15.32,22.26-5.64,4.67-10.22,10.31-15.81,15.02-7.16,6.04-12.97,13.69-20.18,19.65-5.34,4.41-11.33,8.03-16.02,13.27-.64,.71-1.54,1.11-1.97,2.13-2.05,4.81-10.64,9.91-15.93,9.3-6.97-.81-12.62,1.95-17.7,6.25-1.43,1.21-2.85,2.22-4.69,2.69-1.11,.28-2.47,.63-3.13,1.43-10.79,12.99-26.53,16.53-41.39,21.7-2.3,.8-4.12,2.09-5.88,3.64-4.75,4.18-9.49,8.36-14.3,12.46-.86,.73-1.94,1.37-3.02,1.66-11.06,2.96-22,6.76-33.53,7.27-18.77,.84-37.48,.88-55.22-7.01-4.14-1.84-9.05-1.76-13.06-4.2,.55-1.78,1.88-1.55,2.96-1.75,1.55-.29,3.63,.24,3.72-2.27,.08-2.3-.47-4.36-3.02-5.14-5.27-1.61-10.65-2.69-16.15-3.21-2.47-.23-5.02-.42-7.37-1.14-15.81-4.87-31.76-9.36-47.27-15.05-9.15-3.35-17.6-8.63-26.32-13.13-10.87-5.62-21.7-11.32-32.54-17.02-1.02-.54-2.25-1.05-2.87-1.93-4.31-6.11-9.9-10.68-16.24-14.54-2.38-1.45-5.47-3.57,.11-5.33,1.52-.48,2.19-2.09,1.82-3.71-.26-1.13-1.43-1.32-2.44-1.37-1.56-.08-3.23,.03-3.38,2.05-.29,3.97-2.14,2.39-3.86,1.17-7.27-5.19-12.38-12.49-18.29-19-8.03-8.85-14.16-19.23-22.42-27.92-2.34-2.46-6.37-4.01-5.97-9.31,5,5.12,9.57,9.81,14.14,14.5,.58,.6,1.02,1.36,1.69,1.83,1.65,1.16,3.38,2.27,5.53,1.24,.78-.38,1.51-1.05,1.1-1.96-.79-1.75-2.13-3.02-4.15-3.17-1.85-.14-3.05-1.22-4.14-2.51-6.31-7.49-13.11-14.56-18.04-23.16-1.9-3.31-1.29-7.11-3.29-10.36-1.73-2.81-2.61-6.07-5.92-7.73-1.36-.68-2.37-2-.78-3.63,3.19-3.26,2.19-7.28,1.3-10.85-1.16-4.64-1.15-9.17-.91-13.86,.32-6.32-.44-12.5-2.15-18.73-1.65-6.02-2.04-12.32,.71-18.53,2.33-5.26,4.16-10.7,3.63-16.83-.58-6.66,3.26-12.4,5.22-18.53,2.4-7.48,3.51-15.19,3.33-23.07-.02-.65-.1-1.84-.26-1.86-6.2-.74-3.44-6-4.6-9.21-.51-1.41-.37-3.03-2.31-3.36-2.09-.35-2.57,1.21-3.65,2.57-5.42,6.78-7.66,14.61-8.47,23.03-.12,1.22-.29,2.71-1.93,3.11-1.07-.75-.81-1.85-.65-2.75,2.84-15.66,2.66-31.85,8.61-46.97,5-12.69,9.16-25.72,14.61-38.21,5.35-12.25,12.75-23.21,21.56-33.57,11.94-14.04,28.15-22.09,41.9-33.49,9.08-7.53,20.53-9.02,30.89-13.28,.15-.06,.34-.05,.48-.13,12.08-6.67,26.1-7.31,38.65-12.52,.91-.38,2.08-1,2.85-.72,9.11,3.33,16.6-2.46,24.78-4.29,.96-.21,2.34-.42,2.71-1.08,4.56-8.21,13.85-6.84,20.75-10.24,11.21-5.53,22.89-.99,34.37-.54,4.61,.18,9.14-.17,14.54-.73-2.4-1.88-4.54-1.11-6.31-1.74-1.16-.41-3.02-.33-2.57-2.28,.35-1.51,1.88-1.16,2.98-1.02,6.11,.78,12.21,1.65,18.31,2.45,17.95,2.36,34.7,9.21,51.78,14.57,10.01,3.14,19.48,8.67,26.61,17.09,5.34,6.31,12.8,10.02,19.09,15.17,12.2,10,25.46,18.71,36.58,30.06,1.35,1.37,2.7,3.06,5.03,1.06,1.02-.88,2.11,.53,3.12,.99,3.86,1.75,6.95,4.64,9.97,7.45,8.78,8.14,18.19,15.72,24.99,25.72,1.29,1.9,6.33,5.88-1.41,6.69-2,.21-1.15,2.08-.24,3.1,2.55,2.84,5.17,5.63,7.86,8.34,.54,.54,1.45,.86,2.24,.99,1.85,.3,3.52-3.64,5.1-1.03,2.83,4.66,9.3,6.57,9.82,12.7,.42,4.93,3.01,5.78,7.11,4.92,6.24-1.3,12.32-.18,18.17,1.79,2.8,.94,6.29,1.71,6.99,5.6,.05,.3,.29,.74,.53,.81,6.88,1.91,7.89,8.31,10.57,13.52,2.03,3.95,6.33,5.8,9.33,8.9,1.74,1.8,4.12,3.3,4.61,5.79,2.12,10.75,4.98,21.42,4.48,32.52-.08,1.75,.12,3.9-2.56,4.8-6.23,2.11-6.18,2.26-8.23-4.25-.24-.77-.34-1.65-1.78-1.96Zm-116.66,121.77c-.84-1.39,.25-2.32,.76-3.24,7.07-12.9,13.7-25.93,14.39-41.06,.06-1.32,.49-2.62,.72-3.93,1.96-11.48,4.36-22.9,5.76-34.44,2.1-17.32,.83-34.56-2.48-51.7-2.3-11.92-3.84-23.93-9.62-34.96-7.61-14.55-14.78-29.3-20.42-44.81-3.34-9.19-8-17.95-16.35-24.05-6.03-4.41-12.25-8.59-18.43-12.73-22.4-15.02-43.77-31.52-66.74-45.71-6.97-4.31-14.67-7.06-22.32-5.11-12.48,3.18-25.25,2.12-37.64,2.56-14.19,.5-28.04,3.59-42.17,3.5-1.86-.01-3.48,.94-5.08,1.9-17.88,10.7-34.38,23.36-50.87,36.02-4.07,3.13-7.78,6.85-12.17,9.43-7.26,4.27-13.42,9.8-19.47,15.49-8.12,7.65-11.07,18.43-16.37,27.78-3.51,6.2-6.83,12.56-10.86,18.42-4.53,6.6-7.82,13.36-8.37,21.52-.78,11.58,.61,22.91,2.77,34.22,.83,4.36,2.56,8.11,5.39,11.6,6.7,8.27,11.52,17.11,6.47,28.21-.66,1.46-.34,3.3,.34,4.89,4.04,9.47,8.34,18.62,14.38,27.23,14.99,21.37,32.16,40.77,50.21,59.46,16.36,16.94,35.78,30.35,53.53,45.69,8.52,7.36,18.75,6.84,28.56,8.25,3.69,.53,7.96,.83,11.8-.97,3.78-1.78,7.63-1.03,11.09,.75,3.96,2.04,8.23,2.38,12.39,3.43,7.06,1.79,14.71,1.07,21.16,6.18,3.06,2.43,7.8,4.19,12.66,1.8,11.05-5.44,22.34-10.22,34.53-12.71,11.9-2.43,23.77-4.99,35.42-8.62,16.34-5.09,29.06-13.76,34.36-30.95,.62-2,.56-4.24,2.45-5.86,3.46-2.97,3.63-7.34,4.81-11.56-2.62,.61-2.48,3.53-4.61,4.07Zm49.49-103.68c.61-7.74,.08-16.03-1.64-24.23-.29-1.38,.21-3.9-2.69-2.84-1.11,.41-1.99,2.48-3.29,.98-1.16-1.34-.57-3.17,.18-4.73,2.53-5.26,2.63-10.63,.38-15.96-1.61-3.81-3.21-7.7-5.4-11.18-3.35-5.31-7.38-6.22-12.97-3.77-1.38,.61-1.11,1.55-.75,2.43,.36,.89,.04,3.02,1.87,2.1,2.87-1.44,2.66,.66,3.54,2.26,2.57,4.7,1.35,9.78,1.75,14.66,1.57,18.72,8.43,36.83,6.16,56-1.32,11.19-1.4,22.48-3.82,33.61-2.22,10.18-4.35,20.51-3.58,31.13,.24,3.25,.57,6.89-1.22,9.76-5.96,9.56-8.42,20.78-14.56,30.23-.62,.95-1.32,2.25-.29,3.21,1.21,1.12,2.52,.2,3.62-.51,4.46-2.88,9.17-5.47,13.25-8.81,3.9-3.2,7.9-6.58,8.46-12.35,1.57-16.05,4.05-31.97,6.48-47.91,1.38-9.02,2.32-18.12,3.23-27.2,.12-1.22,1.76-4.81-2.53-3.24-1.15,.42-1.81-.57-1.94-1.68-.13-1.15,.45-2.12,1.58-2.14,4.97-.1,4.22-3.58,4.18-6.75-.05-4.15-.01-8.31-.01-13.08Zm-375.23,44.35c-1.74,12.65,4.32,22.24,10.32,30.45,7.02,9.61,16.66,17.49,25.92,25.21,10.15,8.46,19.38,17.66,27.76,27.84,4.12,5.01,9.68,8.07,15.77,10.25-2.23-5.19-7.76-7.49-10.17-12.52,1.91-.61,2.59,.84,3.59,1.55,5.13,3.66,10.05,7.68,15.44,10.92,2.87,1.73,3.03,2.67,.58,4.55-.77,.59-1.98,1.05-1.68,2.23,.38,1.5,1.81,1.27,2.93,1.16,2.79-.27,4.85,.85,6.42,3.06,4.76,6.7,11.85,8.02,19.35,8.37,1.48,.07,3.42,.34,4-1.26,.63-1.73-1.35-2.41-2.45-3.34-8.63-7.32-17.94-13.79-26.28-21.5-7.41-6.86-14.92-13.54-22.09-20.7-8.27-8.26-17.19-16.13-26-23.97-6.4-5.7-12.82-11.7-14.76-20.79-.36-1.7-1.52-3.37-2.68-4.74-6.76-7.97-14.36-15.16-20.34-23.91-3.09-4.52-5.99-8.65-6.45-14.21-.18-2.18-.3-4.55-3.33-7.09,.8,9.4,3.36,17.24,4.81,25.25,.2,1.11,1.52,2.45,2.63,2.87,4.31,1.65,4.79,5.64,6.05,9.17,.36,1.02,1.1,2.42-.37,3.07-1.36,.6-2.07-.66-2.65-1.68-1.81-3.14-2.97-6.67-6.3-10.24Zm8.28,73.81c3.22,.89,4.84,3.27,4.5,6.55-.46,4.51,2.52,6.56,5.48,8.71,1.11,.8,2.48,1.19,3.68,.13,1.07-.95,.78-2.35,.19-3.25-4.21-6.3-5.47-13.83-8.7-20.57-5.08-10.6-11.8-20.38-15.18-31.9-2.22-7.56-5.23-14.97-9.96-21.67-3.28-4.65-7.11-8.98-9.43-14.51-1.38-3.3-3.05-7.47-6.7-9.89-4.26,22.42,4.13,41.32,14.04,59.76,2.55,4.73,2.98,4.5,6.68,1.26,.69,2.45,2.46,5.19,1.82,7.13-1.99,5.93,1.36,9.48,4.6,13.27,2.07,2.42,4,4.84,4.79,8.06,.28,1.14,.82,2.92,2.56,2.5,1.43-.34,.75-2.01,1.12-3.06,.26-.73-.69-1.6,.49-2.52Zm399.77-88.62c-3.59-23.09-8.71-45.87-15.89-68.14-.21-.66-.59-1.26-1.38-1.22-.78,.04-1.2,.66-1.2,1.34,0,1.49,.11,2.98,.21,4.47,.37,5.8,2.8,11.22,2.58,17.22-.41,11.14-.17,22.31-.17,33.46,0,9.48-.5,19.05-3.37,28.02-3.54,11.07-2.27,22.86-6.14,33.78-.41,1.17,.05,2.4,1.22,3,1.34,.68,2.21-.3,2.9-1.25,.89-1.21,1.68-2.48,2.45-3.77,5.85-9.73,9.92-20.32,14.41-30.68,2.22-5.12,5.25-10.66,4.39-16.24Zm-465.84,4.54c0,4-.06,8,.02,11.99,.06,2.95-.62,6.24,1.88,8.51,2.98,2.7,4.06,5.78,3.81,9.77-.12,1.9,.11,5.21,2.89,4.84,2.41-.32,4-3.03,3.77-5.75-.16-1.95-.96-3.81-.67-5.88,1.81-13.17,2.51-26.48,5.51-39.49,2.93-12.74,1.11-25.06-3.89-37-.48-1.14-.71-2.93-2.44-2.69-1.38,.19-1.29,1.74-1.49,2.85-.35,1.96-.57,3.96-1.03,5.89-3.63,15.51-9.01,30.7-8.36,46.96Zm130.72,119.1c-.04-1.35-1.22-1.49-1.96-2.09-10.19-8.3-20.07-17.03-28.52-27.08-6.1-7.26-12.26-14.46-18.43-21.66-1.65-1.93-3.78-3.07-6.28-3.65-.58,1.75,.35,2.84,.93,3.97,5.88,11.37,12.55,22.34,16.62,34.6,.72,2.16,2.36,4.1,4.5,5.2,9.04,4.64,18.26,8.87,28.08,11.61,1.69,.47,3.64,.78,5.05-.9Zm11.25,30c2.29,2.32,5.34,2.61,7.98,3.75,7.9,3.4,15.92,6.57,23.57,10.46,7.87,4,15.39,8.36,24.78,7.54,4.06-.36,8.2-.71,12.7,.39-8.51-12.93-55.54-27.86-69.03-22.14Zm87.98,5.58c-3.48,0-6.97-.02-10.45,.01-.82,0-1.76,.06-2.07,1.03-.32,1.02,.44,1.51,1.23,1.81,3.06,1.14,5,3.79,7.6,5.54,6.39,4.3,12.36,9.78,21.03,8.3,2.21-.38,4.96-.18,5.59-3.15,.63-2.97,.43-5.35-2.53-7.76-6.13-5-12.86-6.47-20.4-5.78Zm275.78-202.77c2.65-1.41,3.02-2.97,2.75-4.69-1.32-8.34-2.07-16.74-2.32-25.18-.14-4.81-2.98-7.92-6.2-10.85-.52-.48-1.57-.77-2.25-.62-1.3,.3-.88,1.55-.89,2.5-.09,8.1,5.04,15.09,4.97,23.19,0,.15,.13,.3,.22,.44,2.7,4.47,4.34,9.23,3.72,15.21Zm-496.92-95.93c-.07-1.26,.21-2.94-1.59-3.59-1.11-.4-2.02,.36-2.37,1.32-2.38,6.65-4.05,13.54-7.1,19.99-.64,1.36-.61,3.89,1.83,4.5,2.26,.56,4.1-.55,4.68-2.69,1.72-6.39,3.9-12.68,4.55-19.53Zm185.33,321.41c1.15,2.14,2.83,2.41,4.41,2.81,11.14,2.8,22.61,3.54,33.9,5.4,1.48,.24,3.88,.87,4.09-1.41,.2-2.17-2.22-1.93-3.77-2.32-12.11-3.05-24.87-1.38-36.9-5.04-.37-.11-.89,.28-1.73,.57Zm-153.08-196.17c-.19-4.78,.48-9.5-4.2-12.37-1.19-.73-2.29-1.45-3.48-.03-1.47,1.77-2.15,12.53-.44,14.01,2.18,1.88,4.4,5.36,6.98,4.8,2.32-.5,.74-4.4,1.13-6.41Zm351.15-114.03c6.95,9.96,9.49,21.52,12.14,33.51,1.93-1.62,2-2.82,1.62-3.6-1.81-3.64-2.04-7.22-.6-11.05,.36-.96,.07-2.42-.42-3.39-3.03-6.03-8.25-10.33-12.73-15.47ZM209.72,803.94c9.52,7.03,20.16,8.59,31.4,7.14-10.6-1.77-21.03-4.3-31.4-7.14Zm-22.08-346.51c-8.72-.44-15.46,4.88-22.95,8.06-1.06,.45-1.88,1.71-1.37,2.92,.55,1.3,1.81,.67,2.55,.15,6.74-4.67,14.87-6.53,21.77-11.13Zm-66.93,249.14c-.17,7.04,1.56,12.15,3.98,17.09,.51,1.03,1.17,2.39,2.52,1.94,1.79-.59,.89-2.18,.74-3.41-.69-5.42-3.69-9.8-7.23-15.62Zm28.17-238.7c-4.28,5.37-9.95,6.66-13.69,10.91,7.5,1.42,12.03-1.89,13.69-10.91Zm415.19,127.73c-.42,6.39,1.71,12.22,3.43,18.15,.25-6.32-.07-12.54-3.43-18.15Zm-390.08,221.14c-1.65-1.41-3.43-3.16-5.43-4.59-1.31-.94-3.35-1.99-4.37-.12-.92,1.68,1.24,2.44,2.4,3.2,1.78,1.17,3.19,3,5.48,3.31,1.03,.14,2.08,.21,1.92-1.79Zm334.17-242.61c-.67-2.06-1.12-4.52-4.13-4.72-1.13-.07-3.07,.14-2.56,1.43,.93,2.35,2.36,4.82,5.14,5.51,1.12,.28,1.57-.95,1.54-2.23ZM115.77,504.09c-2.4,3.21-4.19,5.53-5.9,7.92-.56,.79-1.18,1.9-.35,2.69,1.12,1.07,2.24,.12,2.95-.73,2.12-2.53,3.73-5.31,3.3-9.88Zm23.21,185.18c-.11-4.63-1.83-7.61-3.17-10.71-.32-.74-.82-1.63-1.8-1.13-.82,.42-.91,1.5-.57,2.2,1.43,3.01,1.97,6.53,5.55,9.63Zm209.18,201.77c-4.53-1.12-9.07-2.9-13.83-.87,4.55,.86,9.08,2.01,13.83,.87Zm32.78-463.68c-5.66-4.07-6.41-4.28-10.2-2.82,3.11,1.99,6.28,2.92,10.2,2.82Zm-275.61,115.47c-1.68,3.67-2.63,6.1-.24,9.14,1.28-2.99,1.63-5.41,.24-9.14Zm23.84-60.23c-2.7,1.28-4.8,2.29-5.22,5.12-.11,.71,.42,1.44,1.14,1.27,2.22-.52,2.62-2.79,3.79-4.31,.24-.31,.14-.88,.29-2.07Zm-27.04,119.54c-1.48,2.4-2.88,3.86-2.21,6.04,.22,.71,1.07,.85,1.62,.38,1.76-1.51,1.55-3.4,.59-6.42Zm-2.73,126.16c.29-2.97-.78-4.46-1.58-6.01-.45-.86-1.18-1.81-2.28-1.16-1.07,.64-.72,1.74-.1,2.54,1.07,1.38,2.26,2.66,3.96,4.62Zm342.04,140.27c1.34-.49,2.41-.88,3.49-1.26,1.18-.42,2.78-.25,3.02-1.97,.04-.31-.46-.9-.83-1.04-1.52-.57-2.99-.42-3.94,1.03-.63,.95-1.87,1.66-1.74,3.25Z"/><path class="cls-1" d="M610.76,76.83c9.23,3.49,18.43,.69,26.25,5.31-1.5,2.08-3.29,1.25-4.8,1.09-15.86-1.65-31.61-4.31-47.64-4.2-3.43,.02-6.87-1.2-10.3-1.88-1.08-.22-2.64-.09-2.51-1.77,.11-1.44,1.35-1.67,2.61-1.7,1.07-.03,2.69,.44,2.62-1.36-.05-1.2-1.41-1.26-2.39-1.28-9.71-.22-18.41-5-27.84-6.26-9.15-1.22-17.98-4.01-27.57-3.32-9.06,.65-18.02-2.52-26.82-5.02-.64-.18-1.24-.51-1.89-.66-1.87-.41-4.09-1.86-5.51,.15-1.42,2.02,1.87,2.67,2.19,4.67-3.45,.21-6.05-1.15-7.54-3.94-1.3-2.44-3-3.09-5.6-3.19-5.65-.2-11.28-.97-16.93-1.12-6.53-.18-12.47-1.84-17.73-5.76-.82-.61-1.67-1.34-2.69-.73-4.48,2.67-8.54,.12-12.13-1.63-7.11-3.47-14.55-5.34-22.27-6.22-11.67-1.34-23.2-2.6-35.18-1.59-10.44,.88-21.25-.26-31.9-.31-2.84-.01-5.67-.17-7.93,2.14-.5,.51-1.54,.74-2.32,.69-16.86-.91-32.76,5.42-49.42,6.45-10.03,.62-19.93,3.62-29.83,5.81-2.8,.62-5.58,1.08-8.38,1.12-13.6,.22-26.45,5.28-39.92,6.11-7.53,.46-14.84,1.49-21.91,4.25-8.23,3.21-17.1,2.4-25.61,2.84-17.14,.89-34.08,3.14-51.06,5.22-7.44,.91-14.96,.49-22.35,1.99-6.66,1.35-13.2,2.78-19.61,5.29-7.33,2.87-14.09,6.47-20.76,10.56-3.62,2.22-8.27,2.36-12.68,1.81-3.64-.46-7.27-.93-10.92-1.23-5.89-.48-10.02-4.19-11.22-9.99C.24,74.25,.33,69.25,.02,64.27c-.3-4.84,3.49-6.97,6.72-8.42,10.74-4.8,21.43-9.71,32.8-13.12,8.43-2.53,16.65-5.53,25.43-7.01,13.63-2.3,27.34-3.65,41.08-4.86,20.55-1.8,41.13-3.25,61.67-5.06,19.9-1.75,39.42-6.19,59.33-8.12,12.17-1.18,24.16-4.53,36.17-7.16,24.47-5.37,49.27-8.03,74.24-9.33,23.96-1.25,47.94-2.21,71.84,.96,19.66,2.61,38.77,7.79,58.06,12.21,18.15,4.16,35.99,9.41,54.08,13.74,14.89,3.56,29.98,5.65,45.07,8.01,18.1,2.83,36.34,4.48,54.43,7.13,25.01,3.68,50.11,2.56,75.18,3.59,15.61,.65,31.17,.38,46.75,.65,22.97,.4,45.93,.67,68.91,.33,23.68-.35,47.12-3.04,70.56-5.77,20.47-2.39,40.9-5.19,61.5-6.22,26.26-1.31,52.42-1.63,78.78,.73,22.69,2.03,45.41,4.22,68.02,6.79,24.64,2.81,49.36,4.54,73.99,7.24,19.64,2.16,38.94,6.31,57.72,13.22,19.8,7.29,40.12,13.31,59.95,20.49,21.79,7.89,44.07,13.81,66.14,20.61,8.82,2.71,17.71,5.75,25.85,10.43,2.14,1.23,4.57,2.03,6.95,2.78,15.62,4.9,29.77,13.13,44.63,19.75,4.46,1.99,9.14,3.49,13.88,3.93,6.43,.59,11.78,3.52,17.15,6.44,4.6,2.51,4.79,12.68,.74,18.16-3.67,4.96-9.18,7.13-14.53,9.29-2.81,1.13-4.8,2.36-6.24,5.12-3.04,5.84-5.4,6.43-11.22,3.6-4.02-1.95-8.39-3.36-10.84-7.56-.23-.39-.76-.74-1.21-.85-5.23-1.26-8.73-6.38-14.09-6.85-3.56-.31-2.99-4.16-5.72-4.91-2.51-.69-4.11-2.42-5.68-4.77-1.99-2.97-2.93,2.96-5.95,1.59-3.3-1.51-6.78-2.69-10.19-4.48,.36-1.51,3.29-.25,2.82-2.41-.3-1.36-1.65-1.57-2.75-1.83-2.12-.51-4.27-3.78-6.47,0-.09,.16-1.68-.2-2.21-.71-1.79-1.71-5.78-2.73-5.91-3.05-2.49-5.86-8.78-.6-11.92-4.43-3.02-3.69-8.42-3.85-11.93-7.04-2.65-2.4-6.02-2.13-9.26-2.72-8.06-1.48-15.96-3.87-24.03-5.2-5.38-.88-3.91-2.99-1.85-5.7,.48-.62,1.31-.97,1.59-2.07-2.63,2.34-7.46-.78-9.07,4.27-.4,1.27-2.75,.35-4.05-.34-1.53-.82-1.79-2.06-1.21-3.8,1.85-5.57,1.78-5.73-4.06-5.98-2.8-.12-5.18-.74-7.28-2.66-2.64-2.41-5.02-1.91-6.17,1.45-1.52,4.46-4.45,2.51-6.9,1.65-3.36-1.18-1.66-3.16-.52-5.1,1.5-2.55-.82-3.75-2.34-4.64-1.96-1.15-2.37,.55-2.78,2.17-.57,2.27-2.54,2.49-4.42,2.18-3.93-.65-7.85-1.36-11.72-2.27-11.62-2.73-22.21-8.28-33.37-12.25-3.44-1.23-6.82-2.02-9.29-5.19-1.1-1.41-3.75-2.26-5.57-1.29-5.14,2.73-8.91,.55-12.2-3.03-1.86-2.02-2.87-2.95-4.74,.02-1.39,2.21-3.53,3.19-5.32-.07-.78-1.42-2.19-1.95-3.82-1.93-3.25,.04-6.41-.09-7.82-3.88-.41-1.1-1.48-1.13-2.55-1.04-10.49,.92-20.42-2.39-30.5-4.3-4.93-.94-9.86-.65-14.7-.83-5.62-.21-10.31-1.38-14.45-4.99-.81-.7-1.59-1.45-2.54-.5-5.58,5.56-12.14,2.12-18.27,1.86-2.24-.1-4.54-.98-6.87-.97-1.83,0-3.29,.62-3.39,2.81-.05,1.17,.81,3.11-1.58,2.62-1.37-.28-3.09-.97-2.53-3.02,1.04-3.87-1.53-3.4-3.96-3.69-11.65-1.41-23.4,.16-35-.88-12-1.08-24.06-1.13-36.03-2.43-5.78-.63-11.51,1.82-17.32,.26-.4-.11-1.24,.49-1.5,.97-.45,.83,.05,1.63,.73,2.17,2.52,2,5.19,2.36,8.42,1.63,3.86-.88,7.95-2.22,12.8,.42-11.65,1.79-22.22,.3-32.85-.08-10.61-.39-21.24-1.47-31.71-2.39-11.79-1.04-23.08,.49-34.59,1.15-1.74,.1-3.43,.26-4.4,1.84-2.32,3.77-6.1,4.31-9.96,4.67-4.95,.45-9.36,.64-14.54-1.77-4.68-2.17-11.44-.53-17.15,.35-6.46,1-12.99,.66-19.39,1.58-10.33,1.49-20.73,1.08-30.99,.64-11.69-.5-23.49,.7-35.08-1.64-1.31-.26-2.21-.23-3.01,.94-.34,.5-1.32,1.22-1.49,1.1-5.08-3.49-9.64,1.86-14.66,.76-5.04-1.1-10.67,1-15.25-.44-6.27-1.97-12.62-2.3-18.57-1.68-8.08,.85-16.18,.29-24.21,1.44-6.98,.99-13.87,.37-20.65-1.84-2.95-.96-5.71-1.1-8.98,.65-3.85,2.06-8.5,2.23-13.12,1.22-7.66-1.67-15.51-1.67-23.32-1.74-.74,0-1.48,.52-3.44,1.27Zm595.67,15.27c2.91,1.73,5.36,2.77,9.36,.87-3.63-.85-5.82-3.75-9.36-.87Zm36.57,11.77c-1.87-2.33-3.81-3.18-6.15,0h6.15Z"/><path class="cls-1" d="M1091.5,685.69c-3.88-1.82-2.95-4.27-1.07-7.09,4.12-6.16,8.47-12.71,10.65-19.34,1.91-5.81,5.21-11.03,6.81-17.03,1.14-4.29,1.44-8.71,2.73-12.87,1.74-5.62,7.09-8,11.46-11.12,7.04-5.03,15.6-5.27,23.67-6.91,3.73-.76,9.83,7.4,10.34,12.35,.88,8.51-3.75,15.11-7.59,21.71-7.12,12.25-11.83,25.39-16.36,38.69-2.03,5.96-4.73,11.69-7.27,17.46-4.08,9.28-10.58,17.22-14.59,26.57-1.34,3.12-2.89,6.44-6.83,7.46-.64,.17-1.52,1.16-1.52,1.77,.11,11.9-7.87,20.27-13.03,29.83-4.65,8.63-9.07,17.36-13.48,26.1-8.39,16.63-19.09,31.9-36.04,41.46-2.57,1.45-4.83,3.57-6.95,5.67-5.64,5.57-11.98,4.84-19.04,3.32-12.66-2.73-18.66-12.33-24.7-22.13-.33-.54-.74-1.33-.58-1.82,3.07-9.33-2.57-17.04-4.74-25.36-.6-2.3-1.2-4.58-.91-6.88,2.5-19.71,1.53-39.52,1.81-59.29,.08-6.05-1.55-11.88-2.2-17.83-1.35-12.38-3.86-24.61-7.18-36.53-2.55-9.16-3.69-18.55-6.17-27.63-1.42-5.19-4.64-9.92-5.62-15.34-1.41-7.85-3.53-15.48-6.48-22.88-3.37-8.48-9.37-14.96-16.31-20.51-6.4-5.12-12.2-10.83-18.09-16.48-9.09-8.74-19.49-8.83-29.06-.73-4.72,4-5.57,9.8-6.23,14.82-2.06,15.55-6.92,30.51-9.01,46.01-3.21,23.75-7.08,47.45-9.31,71.29-2.47,26.46-7.28,52.81-5.23,79.59,.56,7.3,.98,14.62,1.27,21.94,.79,19.99-3.69,19.32-21.14,23.94-1.11,.29-2.34,.27-3.34,.76-2.96,1.44-5.22,.34-7.07-1.85-2.9-3.42-5.37-7.21-9.38-9.55-1.69-.98-1.55-2.82-1.61-4.48-.56-15.8-2.34-31.57-1.88-47.39,.54-18.47,1.16-37.08,4.65-55.18,4.74-24.57,6.85-49.39,9.83-74.14,1.14-9.48,2.67-18.97,5.66-28.27,2.72-8.45,3.35-17.59,4.66-26.46,.39-2.68,.14-5.35,3.24-6.67,.97-.41,1.29-1.44,1.17-2.54-1.25-11.74,6.41-18.67,14.61-24.22,11.58-7.83,24.41-13.77,38.05-17.07,20.82-5.03,39.6-1.55,54.28,15.63,3.67,4.29,7.69,8.23,12.28,11.65,14.07,10.46,24.21,24.24,31.58,39.93,4.7,10,5.6,21.23,8.29,31.87,7.01,27.67,8.29,56.18,11.67,84.4,2.35,19.64,1.54,39.2,1.86,58.81,.09,5.67,2.29,11.32,3.65,16.95,.34,1.42,1.58,2.09,3.1,1.98,1.68-.12,2.9-.93,3.15-2.65,.59-3.98,3.32-6.8,5.23-10.08,4.81-8.26,9.37-16.68,14.23-24.91,3.82-6.47,8.08-12.67,11.83-19.17,1.45-2.51,.82-5.93,2.9-8.33,3.95-4.55,6.1-10.05,8.82-15.33,3.84-7.47,8.45-14.63,12.17-22.23,.92-1.88,3.14-1.72,4.34-3.65Z"/><path class="cls-1" d="M1345.1,641.14c3.79,1.6,8.88,3.46,13.67,5.91,1.94,.99,2.44,3.46,1.58,5.8-4.87,13.16-8.63,26.64-11.79,40.31-2.62,11.31-4.86,22.8-8.68,33.72-4.93,14.08-8.68,28.52-14.18,42.46-4.98,12.63-9.52,25.47-14.72,38.03-5.25,12.68-9.44,25.8-16.57,37.69-3.04,5.08-6.02,10.31-7.15,16.34-.69,3.71-4.11,5.61-6.55,7.97-4.54,4.41-7.01,10.68-13.59,13.39-4.59,1.89-8.32,3.76-13.38,1.23-6.31-3.15-12.28-5.87-15.42-13.11-3.59-8.28,.23-17.48,6.79-22.24,4.23-3.06,6.69-6.93,8.84-11.62,3.1-6.77,6.58-13.42,10.08-20.01,2.21-4.15,4.48-8.2,5.33-12.8,.72-3.92,3.09-6.94,4.73-10.36,7.68-16,13.17-32.81,18.97-49.55,2.49-7.19,4.77-14.66,9.05-21.17,.45-.69,1.04-1.51,1.01-2.24-.36-10.54,5.98-19.6,6.75-29.7,.62-8.12,3.7-15.82,2.88-24.21-.88-9.01,4-15.16,12.33-19.27,5.99-2.96,11.71-6.35,20.01-6.58Zm-32.46,61.44q5.38-1.31,5.85-4.42c-2.44,.55-4.76,1.12-5.85,4.42Z"/><path class="cls-1" d="M106.9,230.87c.19,8.61-2.67,11.09-10.35,13.21-7.26,2-14.69,3.1-21.88,5.27-.82,.25-1.94,.8-2.2,.01-1.98-5.96-9.88-5.3-12.08-10.95-.35-.9-1.53-1.75-1.43-2.51,.59-4.39-.47-7.15-5.33-8.37-2.4-.6-.71-10.73,2.26-12.27,6.03-3.13,12.14-6.17,18.41-8.77,9.48-3.93,17.9-.59,25.7,4.81,7.06,4.89,5.98,12.79,6.9,19.57Z"/><path class="cls-1" d="M68.02,653.26c1.26,.16,1.64,1.22,1.7,2.15,.25,4.59,2.31,8.67,1.41,13.8-1.49,8.42-.01,17.23,1.3,25.71,1.11,7.18,1.47,14.58,4.13,21.5,.37,.95,.42,2.09-.75,2.57-1.37,.57-2.39-.02-3.53-1.01-3.75-3.24-3.98-7.91-5.19-12.13-4.21-14.65-4.47-29.53-2.12-44.5,.33-2.11,1.18-4.14,1.74-6.23,.22-.81,.29-1.66,1.32-1.86Z"/><path class="cls-1" d="M585.59,771.55c-5.29,3.51-7.27,10.27-13.44,12.93-1.12,.48-2.25,1.05-3.11-.15-.76-1.06-.01-2.18,.93-2.39,6.63-1.44,8.94-8.93,15.63-10.39Z"/><path class="cls-1" d="M602.82,689.22c-4.86-4.63-5.09-9.18-3.93-14.55,3.31,4.3,1.82,9.32,3.93,14.55Z"/><path class="cls-1" d="M471.58,474.85c4.38,1.61,6.98,4.73,10.21,7.61-3.89-.03-6.03-1.65-10.21-7.61Z"/><path class="cls-1" d="M468.37,472.54c-5.18-1.76-6.77-6.23-11.3-8.12,4.19,.18,7.86,2.85,11.3,8.12Z"/><path class="cls-1" d="M68.92,650.61c-2.19-3.96-1.49-6.8,.25-9.93q1.47,3.88-.25,9.93Z"/><path class="cls-1" d="M545.73,806.18c2.51-3.51,5.23-5.3,8.1-6.92-1.39,3.3-3.3,6-8.1,6.92Z"/><path class="cls-1" d="M406.27,717.65c7.7,14.67,4.5,29.73,3.25,44.49-.45,5.37-5.37,8.89-9.52,11.71-9.01,6.1-18.89,10.44-29.98,11.28-3.68,.28-7.2,1.22-10.69,2.39-14.02,4.7-28.25,6.21-42.62,1.91-7.22-2.16-13.79-5.77-19.49-10.83-2.18-1.94-3.62-4.14-4.13-7.16-1.03-6.08-6.41-9.24-10.18-13.18-8.42-8.8-12.18-19.57-15.67-30.73-2.65-8.48-3.38-17.28-5.01-25.93-.72-3.81-2.26-7.32-4.17-10.65-1.07-1.86-1.25-3.05,.77-4.57,4.7-3.53,10.59-3.58,15.72-5.78,.68-.29,2.31,.24,2.68,.87,4.25,7.27,12.55,9.49,18.34,14.84,2.1,1.94,3.07,3.96,3.58,6.77,2.04,11.12,3.23,22.38,6.02,33.39,2.83,11.17,10.54,17.27,20.48,21.36,4.76,1.95,9.6,1.97,14.55,.29,3.93-1.33,8-2.26,11.99-3.37,13.19-3.67,20.59-10.83,18.28-25.61-.59-3.8,.66-7.93,1.3-11.86,.61-3.75,.14-7.2-1.42-10.69-1.8-4.03,.15-6.73,4.65-6.81,2.32-.04,4.66,.21,6.98,.13,1.11-.04,2.25-.43,3.31-.84,1.42-.54,.46-4.01,3.07-2.89,2.04,.88,2.91,3.12,3.7,5.15,2.3,5.92,3.97,11.96,3.84,18.42-.05,2.48,.29,5,.74,7.45,.31,1.67,.33,4.2,2.96,3.74,2.06-.36,2.93-2.43,2.39-4.33-1.22-4.3,1.73-6.23,4.28-8.97Z"/><path class="cls-1" d="M301.68,685.26c.44-2.69-.25-4.53-1.92-6.56-6.16-7.52-1.05-20.89,8.44-22.56,2.95-.52,5.92-.94,8.88-1.35,1.71-.24,3.58-.11,4.62,1.3,4.45,6.06,11.62,7.44,17.79,10.5,2.31,1.14,3.91,2.46,4.25,5.02,.67,5.04,3.27,9.84,1.77,15.16-.55,1.94-1.34,3.6-3.6,3.39-3.74-.33-6.75,1.29-9.8,3.07-2.34,1.37-5.01,2.24-7.67,1.8-6.33-1.04-12.64-2.3-18.9-3.71-3.2-.72-4.88-2.79-3.86-6.06Z"/><path class="cls-1" d="M356.96,552.23c-1.61-.5-4.56-1.09-7.21-2.31-3.16-1.46-6.14-3.04-9.79-3.11-1.94-.04-2.79-1.65-2.27-3.64,.77-2.95-.28-5.54-.81-8.39-1.26-6.85-2.52-14.22,1.67-20.9,1-1.59,2.28-1.18,3.49-.85,3.11,.83,6.24,.82,9.42,.71,2.9-.1,6.11,.32,7.87,2.53,4.17,5.24,10.4,6.91,15.81,9.98,3.26,1.85,5.37,4.42,4.73,8.01-.71,4.01,3.1,7.98-.15,11.87-.5,.6-.77,1.96-1.2,1.98-7,.4-13.18,4.6-21.56,4.12Z"/><path class="cls-1" d="M255.06,581.15c-3.48,.19-8.05-1.82-12.86-2.18-1.35-.1-2.01-1.1-2.17-2.37-.17-1.32-.65-2.77-.3-3.96,2.43-8.16-1.09-13.11-8.27-16.48-2.47-1.16-1.79-3.01,.17-4.17,4.28-2.52,9.35-3.03,13.76-5.56,2.56-1.47,4.78,1.57,6.3,3.78,2.35,3.4,4.76,5.67,9.6,5.8,10.89,.29,13.91,14.7,9.89,20.79-2.36,3.57-6.58,2.32-9.76,3.84-1.4,.67-3.28,.32-6.37,.53Z"/><path class="cls-1" d="M212.88,758.99c-15.59-11.82-28.25-26.35-38.8-42.81,12.21,14.92,25.98,28.41,38.8,42.81Z"/><path class="cls-1" d="M169.9,710.37c-2.23-1.02-3.66-1.87-5.44-1.13-1.27,.53-2.89,.75-3.56-.65-1.02-2.12,1.59-2.54,2.32-3.9,.95-1.76,2.24-.89,3.35-.15,1.93,1.28,2.15,3.43,3.33,5.83Z"/></svg>